<?xml version="1.0" standalone="no"?>
<!DOCTYPE svg PUBLIC "-//W3C//DTD SVG 20010904//EN"
 "http://www.w3.org/TR/2001/REC-SVG-20010904/DTD/svg10.dtd">
<svg version="1.0" xmlns="http://www.w3.org/2000/svg"
 width="342.000000pt" height="342.000000pt" viewBox="0 0 342.000000 342.000000"
 preserveAspectRatio="xMidYMid meet">
<metadata>
Created by potrace 1.14, written by Peter Selinger 2001-2017
</metadata>
<g transform="translate(0.000000,342.000000) scale(0.100000,-0.100000)"
fill="#000000" stroke="none">
<path d="M834 2253 c-10 -10 -37 -40 -58 -68 -51 -64 -128 -140 -216 -211 -39
-31 -70 -62 -70 -68 0 -6 10 -18 21 -26 12 -8 27 -19 33 -25 6 -5 34 -28 61
-50 68 -54 143 -133 191 -199 45 -62 59 -72 76 -50 7 9 21 24 31 35 9 10 17
23 17 28 0 5 4 11 9 13 5 2 25 23 45 46 20 24 36 41 36 37 0 -4 10 5 22 21 13
16 26 30 29 32 4 2 18 12 31 24 12 11 47 38 76 60 28 22 52 48 52 57 -1 9 -24
33 -53 54 -29 20 -74 57 -101 82 -27 25 -53 45 -58 45 -5 0 -7 4 -4 9 4 5 2
11 -3 13 -8 3 -67 70 -110 127 -27 36 -31 37 -57 14z m48 -91 c7 -7 17 -12 23
-12 6 0 21 -10 32 -22 32 -35 71 -66 78 -62 3 2 3 1 1 -2 -2 -3 13 -24 35 -46
22 -23 37 -43 35 -46 -3 -2 -34 24 -68 59 -35 35 -84 81 -109 101 l-47 37 -45
-30 c-37 -24 -149 -132 -202 -192 -32 -37 -13 -71 94 -177 89 -88 129 -118
153 -115 10 2 20 -1 24 -6 9 -16 -41 -10 -66 8 -75 52 -201 180 -224 226 -14
29 -13 34 2 58 27 43 109 129 116 122 3 -4 6 1 6 10 0 10 4 17 9 17 5 0 17 8
27 17 31 31 89 70 102 68 7 0 18 -7 24 -13z m-3 -124 c10 -30 10 -43 2 -46 -6
-2 -11 -30 -11 -67 0 -58 2 -64 20 -62 11 1 20 4 20 8 0 4 12 9 28 11 33 4 47
48 14 48 -22 0 -34 9 -26 21 7 12 60 -17 68 -37 5 -14 -15 -40 -34 -44 -3 -1
-12 -3 -20 -5 -8 -2 -27 -8 -43 -14 -26 -10 -27 -14 -23 -60 4 -51 -9 -77 -31
-63 -14 9 -13 92 1 111 8 11 8 13 -1 8 -8 -5 -10 11 -7 62 2 40 -1 73 -6 76
-11 7 -3 52 11 71 5 6 6 14 2 17 -3 4 0 7 9 7 9 0 20 -17 27 -42z m-84 -87 c3
-5 -3 -12 -14 -16 -37 -11 -38 -55 -1 -55 10 0 22 -5 25 -10 4 -6 11 -7 17 -4
7 4 8 2 4 -4 -8 -13 -39 -16 -50 -4 -4 4 -12 8 -17 8 -5 1 -13 2 -19 3 -5 0
-19 10 -31 22 l-20 20 28 25 c28 24 67 32 78 15z m327 -53 c-3 -13 -8 -25 -11
-28 -3 -3 -19 -23 -35 -44 -39 -52 -125 -134 -148 -142 -10 -3 -18 -10 -18
-15 0 -5 -6 -9 -12 -9 -7 0 -1 11 12 24 14 13 26 22 28 21 5 -4 114 108 145
148 28 36 35 71 17 82 -5 3 -10 12 -10 18 1 7 9 2 19 -10 12 -15 17 -31 13
-45z"/>
<path d="M1338 2172 c-20 -4 -19 17 -19 -341 0 -143 3 -196 12 -202 7 -4 40
-6 73 -6 l61 2 3 273 c2 254 1 272 -15 273 -10 0 -36 1 -58 2 -22 2 -48 1 -57
-1z"/>
<path d="M1560 2165 c-4 -5 -7 -129 -6 -275 l1 -265 208 -1 c203 -1 207 0 208
20 0 12 2 30 4 41 8 42 -6 46 -139 47 -69 1 -127 4 -127 7 -7 29 -2 101 6 102
5 1 58 2 117 3 59 1 110 4 114 8 8 9 10 81 1 94 -3 5 -57 9 -121 8 -127 -1
-118 -5 -118 61 0 14 0 31 1 38 1 11 27 13 124 12 67 0 127 2 133 7 11 8 11
84 0 95 -10 11 -397 9 -406 -2z"/>
<path d="M2062 2150 c-9 -30 -8 -502 1 -517 4 -6 81 -10 212 -10 180 0 205 2
206 16 0 9 2 29 3 44 3 45 -18 53 -148 50 -112 -2 -116 -1 -121 20 -7 29 -3
69 6 82 5 7 52 11 119 10 70 -1 110 3 111 10 7 52 7 90 0 95 -5 3 -59 5 -120
4 -73 -1 -111 2 -114 10 -2 6 -4 31 -3 56 l1 45 120 1 c66 1 127 2 135 3 12 1
14 12 12 51 -2 27 -7 50 -10 51 -4 0 -96 1 -204 2 l-198 2 -8 -25z"/>
<path d="M2571 2165 c-11 -14 -13 -39 -9 -118 2 -27 0 -51 -4 -53 -5 -3 -4
-13 0 -22 5 -9 8 -90 7 -180 0 -138 2 -163 15 -166 20 -6 371 -6 390 0 11 3
15 18 16 54 1 44 -2 50 -20 51 -12 0 -70 2 -131 2 -108 2 -109 2 -115 27 -3
14 -3 39 0 55 l6 30 119 0 120 0 1 40 c1 68 -2 71 -113 69 -132 -3 -130 -3
-135 56 -1 28 2 51 7 53 6 2 61 3 123 3 62 -1 118 1 124 5 15 9 18 88 4 97
-18 11 -397 8 -405 -3z"/>
<path d="M990 1630 c-11 -11 -20 -23 -20 -27 1 -16 28 -44 41 -41 39 8 49 57
17 77 -14 9 -22 7 -38 -9z"/>
<path d="M164 1461 c5 -7 -3 -9 -25 -4 -24 5 -31 3 -27 -8 4 -11 37 -13 161
-14 86 0 157 4 157 8 0 5 5 5 12 1 16 -10 1308 -11 1308 -1 0 5 6 5 13 0 16
-10 347 -10 347 0 0 5 5 5 12 1 15 -10 1167 -12 1200 -2 17 4 18 6 5 7 -10 1
-15 5 -12 11 3 5 0 8 -7 5 -31 -10 -78 -12 -78 -4 0 6 -5 7 -10 4 -15 -9 -90
-13 -90 -5 0 4 -7 7 -15 7 -8 0 -15 -3 -15 -6 0 -3 -20 -6 -45 -6 -25 0 -45 3
-45 6 0 6 -48 3 -97 -6 -13 -2 -23 1 -23 7 0 6 -7 5 -17 -3 -11 -9 -14 -10 -9
-2 4 8 2 11 -6 8 -26 -10 -88 -11 -88 -2 0 5 -8 3 -17 -4 -14 -12 -16 -12 -8
0 6 10 4 12 -5 6 -19 -11 -90 -12 -90 -1 0 4 -7 3 -15 -4 -12 -10 -15 -10 -15
1 0 9 -3 10 -8 3 -7 -12 -71 -12 -90 0 -6 3 -13 3 -15 -2 -3 -4 -20 -7 -39 -5
-61 3 -93 3 -145 0 -29 -1 -53 1 -53 6 0 4 -6 5 -12 0 -16 -9 -44 -10 -85 -2
-18 4 -35 4 -38 1 -9 -9 -68 -9 -87 0 -10 5 -18 5 -18 1 0 -4 -41 -8 -90 -8
-50 0 -90 4 -90 8 0 5 -6 5 -12 1 -17 -11 -148 -11 -148 -1 0 4 -6 5 -12 0
-18 -11 -148 -11 -148 0 0 6 -5 6 -12 0 -11 -8 -282 -10 -313 -3 -5 1 -12 1
-15 0 -18 -7 -138 -4 -133 4 4 5 1 6 -7 1 -18 -11 -60 -13 -60 -2 0 4 -8 4
-17 -1 -22 -10 -84 -9 -100 1 -7 5 -13 4 -13 -1 0 -9 -122 -8 -139 2 -5 4 -12
3 -15 -2 -5 -9 -107 -9 -122 1 -6 3 -14 4 -18 0 -10 -11 -76 -12 -70 -1 4 6 0
7 -12 1 -17 -8 -91 -10 -119 -3 -5 1 -12 1 -15 0 -15 -5 -70 -4 -70 2 0 4 -6
5 -12 3 -33 -12 -73 -13 -91 -4 -14 8 -17 8 -13 0z"/>
<path d="M220 1362 c0 -7 -4 -11 -9 -7 -13 8 -41 -23 -41 -45 0 -21 25 -49 46
-51 8 -1 19 -3 24 -4 6 -1 15 -3 20 -4 16 -2 11 -41 -6 -48 -9 -3 -31 -1 -50
5 -26 8 -34 7 -34 -2 0 -39 96 -34 124 6 24 33 3 59 -58 73 -32 7 -43 17 -38
37 4 18 10 20 48 14 24 -3 46 -2 49 3 6 11 -17 20 -41 17 -11 -2 -22 2 -26 8
-5 8 -8 7 -8 -2z"/>
<path d="M320 1348 c0 -8 5 -10 42 -12 21 -1 22 -6 22 -73 0 -49 4 -73 12 -73
8 0 11 22 10 66 -1 76 1 80 33 80 14 0 26 4 28 9 2 6 -27 11 -72 11 -41 0 -75
-3 -75 -8z"/>
<path d="M497 1339 c-4 -13 -1 -26 4 -30 7 -4 7 -9 2 -12 -13 -8 -9 -73 6 -91
7 -8 26 -19 42 -25 27 -9 34 -7 55 14 22 22 25 32 22 85 -2 35 1 62 7 64 5 2
2 5 -7 5 -10 1 -18 -2 -19 -6 0 -5 -2 -35 -4 -68 -6 -87 -4 -83 -45 -73 l-37
10 -2 66 c-2 70 -14 99 -24 61z"/>
<path d="M689 1356 c-1 -1 -3 -21 -5 -46 -10 -126 -7 -131 60 -124 68 6 95 57
72 132 -4 12 -11 20 -16 17 -5 -3 -10 -1 -12 5 -2 8 -91 22 -99 16z m101 -44
c8 -9 15 -26 14 -37 -2 -34 -15 -66 -25 -60 -5 4 -9 2 -9 -2 0 -5 -15 -9 -33
-10 l-33 -1 0 70 0 69 35 -6 c19 -3 42 -13 51 -23z"/>
<path d="M882 1351 c-12 -8 -9 -155 3 -160 36 -15 74 -17 90 -5 20 15 15 17
-38 16 -35 -1 -50 25 -33 57 7 13 16 19 19 14 3 -5 20 -8 36 -5 41 6 28 23
-15 20 -41 -3 -65 15 -46 34 7 7 29 13 48 13 19 1 34 5 34 10 0 10 -84 15 -98
6z"/>
<path d="M1036 1351 c-2 -3 -4 -43 -4 -88 0 -61 3 -81 12 -77 8 3 12 26 11 70
-1 36 2 67 7 70 14 9 9 31 -7 31 -9 0 -17 -3 -19 -6z"/>
<path d="M1205 1349 c-14 -5 -16 -8 -5 -9 8 -1 20 -3 25 -5 6 -1 15 -3 21 -3
6 -1 10 -27 9 -67 -1 -74 9 -103 23 -65 5 14 6 26 1 28 -5 2 -5 12 1 21 5 10
7 21 4 23 -20 21 -3 72 22 67 20 -3 37 1 30 8 -10 10 -107 12 -131 2z"/>
<path d="M1469 1346 c-7 -62 -3 -156 5 -159 10 -2 41 -2 89 2 24 1 37 40 24
69 -6 12 -15 22 -20 22 -6 0 -6 5 0 13 10 12 9 44 -1 54 -11 12 -96 11 -97 -1z
m85 -22 c7 -18 -19 -36 -45 -32 -13 2 -23 11 -25 23 -3 17 3 20 31 21 19 0 36
-5 39 -12z m4 -67 c6 -5 12 -17 12 -28 0 -10 -6 -19 -12 -20 -7 0 -23 -2 -36
-5 -17 -3 -25 2 -31 19 -5 12 -6 27 -4 33 5 12 51 13 71 1z"/>
<path d="M1642 1351 c-13 -8 -10 -162 3 -159 10 3 12 8 14 41 2 26 26 21 53
-11 23 -28 58 -48 58 -34 0 4 -11 20 -25 36 -22 26 -23 30 -10 49 19 28 19 45
-1 65 -17 16 -74 25 -92 13z m79 -32 c8 -13 1 -38 -10 -40 -3 0 -17 -2 -30 -5
-19 -4 -23 -1 -18 16 3 11 1 23 -4 26 -5 3 -7 10 -4 15 8 12 56 3 66 -12z"/>
<path d="M1821 1277 c-19 -50 -27 -85 -21 -91 5 -5 11 1 16 18 5 23 11 26 45
26 32 0 42 -5 51 -25 13 -28 29 -24 23 6 -10 50 -51 138 -66 142 -13 4 -24
-13 -48 -76z m63 -18 c-7 -11 -44 -12 -44 0 0 4 5 23 11 41 l12 32 13 -32 c8
-18 11 -36 8 -41z"/>
<path d="M1993 1352 c-6 -4 -12 -36 -13 -72 -3 -96 -2 -106 11 -93 6 6 11 36
11 67 1 31 4 56 7 56 3 0 19 -26 36 -58 16 -31 34 -60 39 -64 20 -13 32 12 30
59 -1 26 -3 64 -4 83 0 31 -2 33 -12 15 -6 -11 -11 -39 -9 -62 2 -45 -13 -58
-24 -22 -6 16 -46 84 -58 96 -2 1 -8 -1 -14 -5z"/>
<path d="M2183 1334 c-13 -13 -24 -28 -24 -34 -5 -42 -4 -58 8 -82 7 -16 17
-28 21 -29 4 0 20 -3 36 -5 35 -6 76 3 76 15 0 5 -18 7 -40 4 -48 -7 -67 7
-76 53 -4 24 -1 42 11 60 15 24 21 26 61 20 26 -3 44 -2 44 4 0 6 -6 11 -12
11 -73 7 -83 5 -105 -17z"/>
<path d="M2341 1340 c1 -14 0 -28 -1 -32 -2 -10 -2 -96 0 -105 2 -5 2 -11 1
-15 -2 -14 17 -8 23 7 3 8 0 15 -6 15 -7 0 -6 5 2 15 7 8 9 15 5 15 -4 0 -2 7
5 16 16 18 74 15 76 -3 1 -7 2 -27 3 -45 2 -48 19 -21 21 32 3 84 0 120 -11
120 -5 0 -7 -4 -4 -10 3 -5 2 -10 -3 -10 -5 0 -7 -11 -4 -25 4 -24 2 -25 -41
-25 -40 0 -45 3 -42 19 2 11 -3 27 -11 38 -14 17 -15 17 -13 -7z"/>
<path d="M2631 1351 c-18 -11 -18 -148 -1 -165 10 -8 11 -6 7 12 -3 13 0 22 6
22 8 0 8 3 2 8 -12 8 -15 52 -4 52 5 0 4 12 -1 26 -18 47 9 15 46 -56 50 -96
64 -93 64 14 0 47 -4 88 -10 91 -10 6 -12 -8 -12 -77 0 -21 -4 -38 -9 -38 -5
0 -9 7 -9 15 0 8 -5 15 -11 15 -5 0 -7 5 -4 10 3 6 1 10 -4 10 -6 0 -11 6 -11
13 -1 23 -34 57 -49 48z"/>
<path d="M2794 1349 c-3 -5 1 -9 10 -9 20 0 20 -125 -1 -146 -13 -13 -11 -14
21 -11 37 4 63 17 34 17 -21 0 -19 127 2 140 16 10 12 12 -33 15 -15 1 -30 -2
-33 -6z"/>
<path d="M2888 1349 c-10 -7 -8 -9 7 -10 11 -1 27 -2 35 -3 12 -1 16 -18 18
-78 2 -43 7 -78 12 -78 6 0 10 8 11 18 0 9 1 44 2 77 2 45 6 60 17 61 8 1 24
2 34 3 11 0 16 4 12 8 -10 11 -132 12 -148 2z"/>
<path d="M3057 1346 c-3 -7 -2 -17 2 -22 5 -5 14 -37 21 -71 7 -34 19 -64 27
-67 15 -6 33 31 36 76 4 50 24 39 39 -19 7 -31 19 -58 25 -61 13 -4 29 28 36
70 2 13 6 30 10 38 14 39 15 60 0 60 -8 0 -11 -4 -8 -10 3 -5 2 -10 -3 -10 -5
0 -13 -20 -16 -45 -4 -25 -11 -45 -17 -45 -5 0 -8 3 -8 8 1 4 0 10 -1 15 -6
18 -8 24 -15 55 -15 66 -35 53 -55 -35 -14 -64 -22 -60 -39 20 -12 56 -24 71
-34 43z"/>
<path d="M1146 1321 c1 -16 -1 -43 -5 -61 l-6 -32 -25 51 c-14 28 -28 51 -32
51 -13 0 -10 -9 22 -76 49 -103 65 -99 66 17 1 54 -3 79 -11 79 -6 0 -10 -13
-9 -29z"/>
</g>
</svg>
